<?xml version="1.0" encoding="utf-8"?>
<!-- Generator: Adobe Illustrator 22.0.1, SVG Export Plug-In . SVG Version: 6.00 Build 0)  -->
<svg version="1.1" id="Layer_1" xmlns="http://www.w3.org/2000/svg" xmlns:xlink="http://www.w3.org/1999/xlink" x="0px" y="0px"
	 viewBox="0 0 277.3 97.4" style="enable-background:new 0 0 277.3 97.4;" xml:space="preserve">
<style type="text/css">
	.st0{fill:#BA9B6F;}
	.st1{fill:#FFFFFF;}
	.st2{enable-background:new    ;}
	.st3{fill:#706F6F;}
</style>
<path class="st0" d="M70.9,44.9c-3.4,0-11.2-1.9-11.2-7.4s5.8-6.7,5.8-6.7L58,20.1H38.9H19.7l-7.5,10.7c0,0,5.8,1.1,5.8,6.7
	s-7.8,7.4-11.2,7.4c0,0-4.4,32.5,32,48.2C75.3,77.4,70.9,44.9,70.9,44.9z M66.8,62.7C62.4,75.3,53,84.9,38.9,91.1
	c-14.2-6.3-23.6-15.9-28-28.6c-2.4-7.1-2.5-13.3-2.4-15.9c4.5-0.5,11.3-3,11.3-9.1c0-4-2.5-6.4-4.8-7.6l5.6-8h36.5l5.6,8
	c-2.3,1.2-4.8,3.5-4.8,7.6c0,6.1,6.8,8.6,11.3,9.1C69.3,49.3,69.3,55.5,66.8,62.7z"/>
<path class="st0" d="M56.9,37.5c0-4.2,2.4-6.6,4.3-7.9L56.5,23H21.2l-4.6,6.6c2,1.3,4.3,3.7,4.3,7.9c0,6.2-5.9,9.2-11.3,10.1
	c-0.1,3.1,0.2,8.5,2.4,14.6C16.2,74.5,25.3,83.8,39,90c13.6-6.2,22.7-15.5,26.9-27.6c2.2-6.4,2.5-12,2.4-14.8
	C62.8,46.7,56.9,43.6,56.9,37.5z M65.1,62.1c-4.1,11.9-13,21-26.2,27.1C25.6,83.1,16.7,73.9,12.6,62c-1.9-5.6-2.3-10.5-2.3-13.8
	c5.6-1,11.3-4.3,11.3-10.7c0-4.1-2.1-6.6-4-8.1l4-5.7h34.6l4,5.7c-2,1.5-4,4-4,8.1c0,6.3,5.7,9.6,11.3,10.7
	C67.5,51,67.1,56.3,65.1,62.1z"/>
<path class="st0" d="M38.9,0.6l-0.7,1.2c0,0,0.6,0.2,0.5,0.6c-0.1,0.5-0.8,0.7-1.1,0l-1.1,0.8l1.1,0.7c0,0,0.1-0.5,0.6-0.4
	c0.2,0,0.3,0.3,0.4,0.6c-0.4,0.1-1.2,0.4-1.2,1.6c0,1,0.9,1.3,0.9,1.3s0.3,6.3-1.4,6.4c-1.7,0.2-2.6-1.5-2.3-3.1
	C34.9,8.2,37.5,7,37.5,7s-3.1,0.5-3.8,2.9s0.2,3.9-1.7,4c-1.9,0.1-1.5-5.4,2.6-6.5c0,0-6.1,0.9-5.2,5.6c0.1,0.6,0.4,1.2,0.7,1.7
	c0.2,0.3,0.4,0.9,0.4,1.5h8.4h8.4c0-0.7,0.2-1.2,0.4-1.5c0.3-0.6,0.5-1.1,0.7-1.7c0.9-4.7-5.2-5.6-5.2-5.6c4.2,1.1,4.6,6.6,2.6,6.5
	c-1.9-0.1-1-1.6-1.7-4C43.3,7.5,40.2,7,40.2,7s2.6,1.2,2.9,3.2c0.2,1.6-0.6,3.3-2.3,3.1c-1.7-0.2-1.4-6.4-1.4-6.4s0.9-0.3,0.9-1.3
	c0-1.1-0.7-1.5-1.2-1.6c0.1-0.3,0.2-0.6,0.4-0.6c0.5-0.1,0.6,0.4,0.6,0.4l1.1-0.7l-1.1-0.8c-0.3,0.7-1,0.5-1.1,0s0.5-0.6,0.5-0.6
	L38.9,0.6"/>
<rect x="30.5" y="16.8" class="st0" width="16.8" height="1.5"/>
<rect x="30.5" y="18.8" class="st0" width="16.8" height="0.4"/>
<g>
	<g>
		<g>
			<g>
				<path class="st0" d="M52.4,93.8c-0.1,0.1-0.2,0.1-0.2,0.1s0.3-0.1,0.7-0.4C52.7,93.6,52.5,93.7,52.4,93.8z"/>
				<path class="st0" d="M46.6,96c-1.2,0.6-1.8,1-1.8,1c0.1-0.1,0.3-0.1,0.4-0.2C45.5,96.6,46,96.4,46.6,96z"/>
				<path class="st0" d="M52.2,92.2c0.6-0.5,1.3-1,1.9-1.5c0.6-0.6,1.3-1.1,2-1.7c0.2-0.1,0.3-0.3,0.5-0.4c0.2-0.2,0.3-0.3,0.5-0.5
					c0.3-0.3,0.7-0.7,1-1s0.7-0.7,1-1c0.3-0.4,0.7-0.7,1-1.1s0.7-0.8,1-1.1c0.3-0.4,0.6-0.8,1-1.2c0.3-0.4,0.7-0.8,1-1.2
					c0.3-0.4,0.6-0.9,0.9-1.3c0.2-0.2,0.3-0.4,0.5-0.7c0.2-0.2,0.3-0.4,0.5-0.7c0.3-0.5,0.6-0.9,0.9-1.4l0.4-0.7
					c0.1-0.2,0.3-0.5,0.4-0.7c0.3-0.5,0.5-1,0.8-1.5s0.5-1,0.7-1.5s0.5-1,0.7-1.5c0.9-2.1,1.7-4.1,2.3-6.3c0.7-2.1,1.2-4.2,1.6-6.3
					c0.2-1,0.4-2.1,0.5-3.1c0.1-0.5,0.2-1,0.2-1.5c0.1-0.5,0.1-1,0.2-1.5s0.1-1,0.1-1.4c0-0.5,0.1-0.9,0.1-1.4
					c0-0.9,0.1-1.8,0.1-2.6c0-1.7,0-3.2-0.1-4.6c-0.1-1.4-0.2-2.6-0.3-3.5c-0.1-1-0.2-1.7-0.3-2.3c-0.1-0.5-0.1-0.8-0.1-0.8
					s0.1,0.3,0.2,0.8s0.2,1.3,0.4,2.3c0.1,1,0.3,2.2,0.4,3.5c0.1,1.4,0.2,2.9,0.2,4.6c0,0.8,0,1.7,0,2.6c0,0.5,0,0.9-0.1,1.4
					c0,0.5,0,1-0.1,1.4c0,0.5-0.1,1-0.1,1.5s-0.1,1-0.2,1.5c-0.1,1-0.3,2-0.5,3.1c-0.4,2.1-0.9,4.2-1.5,6.4
					c-0.6,2.1-1.4,4.3-2.3,6.4c-0.2,0.5-0.5,1-0.7,1.5c-0.3,0.5-0.5,1-0.8,1.5s-0.5,1-0.8,1.5c-0.1,0.2-0.3,0.5-0.4,0.7l-0.4,0.7
					c-0.3,0.5-0.6,0.9-0.9,1.4c-0.1,0.2-0.3,0.5-0.5,0.7s-0.3,0.4-0.5,0.7c-0.3,0.4-0.6,0.9-1,1.3c-0.3,0.4-0.7,0.8-1,1.3
					c-0.3,0.4-0.7,0.8-1,1.2c-0.3,0.4-0.7,0.8-1.1,1.1c-0.3,0.4-0.7,0.7-1,1.1s-0.7,0.7-1.1,1c-0.4,0.3-0.7,0.7-1,1
					c-0.2,0.2-0.3,0.3-0.5,0.5c-0.2,0.1-0.4,0.3-0.5,0.4c-0.7,0.6-1.4,1.1-2,1.7c-0.7,0.5-1.3,1-2,1.4c-0.3,0.2-0.6,0.4-0.9,0.7
					c-0.3,0.2-0.6,0.4-0.9,0.6c-0.6,0.4-1.1,0.7-1.6,1c-0.3,0.2-0.5,0.3-0.7,0.5c-0.2,0.1-0.5,0.3-0.7,0.4c-0.3,0.2-0.7,0.4-0.9,0.5
					c-0.6,0.4-1.1,0.6-1.4,0.8c34.5-16.8,32.9-55,30.1-63.6c-2.2-6.5-5.9-3-5,0s5.4,9.3-0.7,32.3C65.8,79.7,57.2,88.4,51.2,93
					c0,0,0.1,0,0.1-0.1C51.6,92.7,51.9,92.4,52.2,92.2z"/>
				<path class="st0" d="M44.8,97c0,0,0.1-0.1,0.4-0.2C45.1,96.9,44.9,96.9,44.8,97z"/>
				<path class="st0" d="M52.2,93.9c0,0,0.1,0,0.2-0.1C52.3,93.9,52.2,93.9,52.2,93.9z"/>
				<path class="st0" d="M54,93.9L54,93.9L54,93.9z"/>
			</g>
			<g>
				<path class="st0" d="M24.9,93.8c0.1,0.1,0.2,0.1,0.2,0.1s-0.3-0.1-0.7-0.4C24.5,93.6,24.7,93.7,24.9,93.8z"/>
				<path class="st0" d="M30.6,96c1.2,0.6,1.8,1,1.8,1c-0.1-0.1-0.3-0.1-0.4-0.2C31.7,96.6,31.2,96.4,30.6,96z"/>
				<path class="st0" d="M25,92.2c-0.6-0.5-1.3-1-1.9-1.5c-0.6-0.6-1.3-1.1-2-1.7c-0.2-0.1-0.3-0.3-0.5-0.4
					c-0.2-0.2-0.3-0.3-0.5-0.5c-0.3-0.3-0.7-0.7-1-1s-0.7-0.7-1-1c-0.3-0.4-0.7-0.7-1-1.1s-0.7-0.8-1-1.1c-0.3-0.4-0.6-0.8-1-1.2
					c-0.3-0.4-0.7-0.8-1-1.2c-0.3-0.4-0.6-0.9-0.9-1.3c-0.2-0.2-0.3-0.4-0.5-0.7c-0.2-0.2-0.3-0.4-0.5-0.7c-0.3-0.5-0.6-0.9-0.9-1.4
					l-0.4-0.7c-0.1-0.2-0.3-0.5-0.4-0.7c-0.3-0.5-0.5-1-0.8-1.5S9.2,73.5,9,73s-0.5-1-0.7-1.5c-0.9-2.1-1.7-4.1-2.3-6.3
					c-0.7-2.1-1.2-4.2-1.6-6.3c-0.2-1-0.4-2.1-0.5-3.1c-0.1-0.5-0.2-1-0.2-1.5c-0.1-0.5-0.1-1-0.2-1.5c-0.1-0.5-0.1-1-0.1-1.4
					c0-0.5-0.1-0.9-0.1-1.4c0-0.9-0.1-1.8-0.1-2.6c0-1.7,0-3.2,0.1-4.6c0.1-1.4,0.2-2.6,0.3-3.5c0.1-1,0.2-1.7,0.3-2.3
					C4,36.5,4,36.2,4,36.2S3.9,36.5,3.7,37c-0.1,0.5-0.2,1.3-0.4,2.3c-0.1,1-0.3,2.2-0.4,3.5c-0.1,1.4-0.2,2.9-0.2,4.6
					c0,0.8,0,1.7,0,2.6c0,0.5,0,0.9,0.1,1.4c0,0.5,0,1,0.1,1.4c0,0.5,0.1,1,0.1,1.5s0.1,1,0.2,1.5c0.1,1,0.3,2,0.5,3.1
					c0.4,2.1,0.9,4.2,1.5,6.4c0.6,2.1,1.4,4.3,2.3,6.4c0.2,0.5,0.5,1,0.7,1.5c0.3,0.5,0.5,1,0.8,1.5s0.5,1,0.8,1.5
					c0.1,0.2,0.3,0.5,0.4,0.7l0.4,0.7c0.3,0.5,0.6,0.9,0.9,1.4c0.1,0.2,0.3,0.5,0.5,0.7s0.3,0.4,0.5,0.7c0.3,0.4,0.6,0.9,1,1.3
					c0.3,0.4,0.7,0.8,1,1.3c0.3,0.4,0.7,0.8,1,1.2c0.3,0.4,0.7,0.8,1.1,1.1c0.3,0.4,0.7,0.7,1,1.1s0.7,0.7,1.1,1s0.7,0.7,1,1
					c0.2,0.2,0.3,0.3,0.5,0.5c0.2,0.1,0.4,0.3,0.5,0.4c0.7,0.6,1.4,1.1,2,1.7c0.7,0.5,1.3,1,2,1.4c0.3,0.2,0.6,0.4,0.9,0.7
					c0.3,0.2,0.6,0.4,0.9,0.6c0.6,0.4,1.1,0.7,1.6,1c0.3,0.2,0.5,0.3,0.7,0.5c0.2,0.1,0.5,0.3,0.7,0.4c0.3,0.2,0.7,0.4,0.9,0.5
					c0.6,0.4,1.1,0.6,1.4,0.8C-2.5,80-0.9,41.8,1.9,33.2c2.2-6.5,5.9-3,5,0s-5.4,9.3,0.7,32.3C11.5,79.7,20,88.4,26,93
					c0,0-0.1,0-0.1-0.1C25.6,92.7,25.3,92.4,25,92.2z"/>
				<path class="st0" d="M32.4,97c0,0-0.1-0.1-0.4-0.2C32.2,96.9,32.3,96.9,32.4,97z"/>
				<path class="st0" d="M25.1,93.9c0,0-0.1,0-0.2-0.1C24.9,93.9,25,93.9,25.1,93.9z"/>
				<path class="st0" d="M23.3,93.9L23.3,93.9L23.3,93.9z"/>
			</g>
		</g>
	</g>
</g>
<g>
	<path class="st0" d="M38.7,66.4v-0.2L37.4,66c0,0.1,0,0.2,0,0.4H38.7z"/>
	<path class="st0" d="M42.4,53.6c-0.4-0.3-0.9-0.6-1.5-0.8v-0.1c0.9-0.1,1.8-0.4,2.7-1c0.5-0.3,1-0.8,1.4-1.3
		c-0.2-0.3-0.3-0.6-0.4-1c0.1,0.3,0.2,0.7,0.4,1c0.3-0.3,0.5-0.6,0.7-1c0.6-1,0.8-2,0.8-3.3c0-0.9-0.3-1.9-0.8-3.2
		c-0.6-1.2-1.5-2.3-3-3.3c-0.7-0.5-1.5-0.8-2.5-1.1c-0.2,0.3-0.3,0.5-0.5,0.8c0.7,0.3,1.4,0.7,2,1.2c0.8,0.6,1.4,1.4,1.9,2.4
		s0.7,2,0.7,3.2c0,1.5-0.4,2.8-1.3,3.9c-0.9,1.1-1.9,1.8-3.2,2.1L39.7,52c2.2-1.1,3.3-3,3.3-5.6c0-1.2-0.3-2.3-0.8-3.5
		s-1.4-2.2-2.6-3c-0.1,0-0.1-0.1-0.2-0.1c-0.1,0.2-0.2,0.4-0.2,0.5c0.3,0.2,0.6,0.4,0.9,0.7c0.7,0.6,1.2,1.4,1.6,2.3
		c0.4,0.9,0.6,1.9,0.6,2.9c0,1.1-0.2,2.1-0.6,3c-0.4,0.9-1.1,1.6-2.2,2.2c-0.1,0-0.2,0.1-0.3,0.1C40.2,52.7,41.2,53.4,42.4,53.6z"/>
	<path class="st0" d="M36.9,39c0,0.2,0,0.3,0,0.5c0.4,0.1,0.7,0.2,1.1,0.3c0.5,0.2,0.9,0.4,1.3,0.7c0.1-0.2,0.2-0.4,0.2-0.5
		C38.8,39.6,37.9,39.2,36.9,39z"/>
	<path class="st0" d="M37,38.3h-0.2c0,0.1,0,0.3,0,0.4c0.8,0.1,1.6,0.2,2.4,0.5c0.2,0.1,0.5,0.2,0.7,0.3c0.1-0.3,0.3-0.6,0.5-0.8
		C39.3,38.4,38.3,38.3,37,38.3z"/>
	<path class="st0" d="M49.2,62.7c-0.6-0.8-1.3-1.9-2.3-3.3c-0.9-1.4-1.7-2.5-2.3-3.3s-1.1-1.4-1.5-1.9c-0.2-0.2-0.4-0.4-0.7-0.5
		c-1.2-0.2-2.2-0.8-3-1.7c-0.5,0.3-1.2,0.5-1.9,0.6c0,0.5,0,1,0,1.5c0.4,0.2,0.9,0.5,1.4,1.1c0.4,0.4,0.9,1,1.5,1.9s1.4,2,2.3,3.4
		c0.9,1.4,1.6,2.3,2,2.9c0.4,0.6,0.9,1.1,1.3,1.5c1.1,1.1,2.6,1.7,4.5,1.7h3.3v-0.2c-1.1,0-2.1-0.5-3.2-1.6
		C50.3,64.1,49.7,63.5,49.2,62.7z M49.9,65.8c-1.1,0-2-0.3-2.8-0.9s-1.7-1.6-2.7-3.1l-4.2-6.1c-0.6-1-1.3-1.7-2-2.2l0.1-0.2
		c0.9,0.2,1.7,0.5,2.3,1.1c0.6,0.5,1.3,1.3,2,2.4l3.3,4.8c1.6,2.3,2.9,3.6,3.9,3.9v0.3H49.9z"/>
	<path class="st0" d="M35.7,52.6c-0.9,0-1.7,0-2.2-0.1c-0.1-1-0.1-2-0.1-3.1v-3.2c0-0.9,0-2.1,0.1-3.5s0.2-2.5,0.3-3.2
		c0.4-0.1,1-0.2,1.8-0.2c0.4,0,0.9,0.1,1.3,0.2c0-0.2,0-0.3,0-0.5c-0.5-0.1-1-0.1-1.6-0.2v-0.2h0.9c0.2,0,0.4,0,0.6,0
		c0-0.1,0-0.3,0-0.4H24.4v0.2l4.6,0.7c0.2,1.1,0.3,2.7,0.4,4.6c0.1,2,0.2,3.7,0.2,5.2V55c0,1.1-0.1,2.8-0.2,5.1s-0.3,4.2-0.5,5.5
		l-4.5,0.7v0.2h13c0-0.1,0-0.2,0-0.4l-3.5-0.5c-0.3-2.5-0.5-4.4-0.5-5.9v-3.6c0-0.8,0-1.6,0.1-2.3c0.4-0.1,1.1-0.1,1.9-0.1
		c0.9,0,1.6,0.1,2,0.3c0,0,0,0,0.1,0c0-0.5,0-1,0-1.5C36.9,52.5,36.3,52.6,35.7,52.6z M31.4,65.7H30V39h1.4V65.7z"/>
</g>
<g>
	<path class="st0" d="M38.7,47.2V24.4H21.8l-3.4,4.8c1.8,1.5,3.8,4.2,3.8,8.2c0,6.5-5.7,10.1-11.3,11.3c0,3.1,0.5,7.7,2.3,13
		c4,11.7,12.6,20.7,25.6,26.7V61v-6.8L38.7,47.2z"/>
</g>
<g>
	<path class="st1" d="M38.7,52.3c0,0,0-0.1,0-0.2c-0.9,0.3-1.8,0.5-3.1,0.5c-0.9,0-1.7,0-2.2-0.1c-0.1-1-0.1-2-0.1-3.1v-3.2
		c0-0.9,0-2.1,0.1-3.5s0.2-2.5,0.3-3.2c0.4-0.1,1-0.2,1.8-0.2s1.6,0.2,2.4,0.5c0.3,0.1,0.5,0.2,0.8,0.4c0-0.2,0-0.4,0-0.6
		c-1-0.5-2.1-0.7-3.5-0.7v-0.2h0.9c0.9,0,1.7,0.1,2.5,0.4c0-0.2,0-0.5,0-0.7c-0.6-0.1-1.1-0.1-1.7-0.1H24.4v0.2l4.6,0.7
		c0.2,1.1,0.3,2.7,0.4,4.6c0.1,2,0.2,3.7,0.2,5.2v6c0,1.1-0.1,2.8-0.2,5.1s-0.3,4.2-0.5,5.5l-4.5,0.7v0.2h14.3v-0.2l-4.8-0.7
		c-0.3-2.5-0.5-4.4-0.5-5.9v-3.6c0-0.8,0-1.6,0.1-2.3c0.4-0.1,1.1-0.1,1.9-0.1c0.9,0,1.6,0.1,2,0.3s0.8,0.4,1.3,0.9
		c0-0.3,0-0.6,0-0.9c-0.2-0.2-0.3-0.2-0.5-0.4l0.1-0.2c0.2,0,0.2,0,0.4,0.1c0-0.1,0-0.1,0-0.3C38.7,52.9,38.7,52.6,38.7,52.3z
		 M31.4,65.7H30V39h1.4V65.7z"/>
</g>
<g class="st2">
	<path class="st3" d="M80.9,55.1h0.6v6.5h-0.6V55.1z"/>
	<path class="st3" d="M86.1,56.8h0.6v0.9c0.2-0.3,0.5-0.6,0.8-0.7c0.3-0.2,0.6-0.2,1-0.2s0.7,0.1,1,0.3s0.5,0.4,0.6,0.7
		s0.2,0.8,0.2,1.4v2.5h-0.6v-2.3c0-0.5,0-0.9-0.1-1.1c-0.1-0.3-0.2-0.6-0.4-0.7c-0.2-0.2-0.5-0.2-0.8-0.2c-0.4,0-0.7,0.1-1,0.4
		s-0.5,0.6-0.6,0.9c-0.1,0.2-0.1,0.7-0.1,1.3v1.8h-0.6V56.8z"/>
	<path class="st3" d="M95.2,55h0.6v1.8h1v0.5h-1v4.3h-0.6v-4.3h-0.8v-0.5h0.8V55z"/>
	<path class="st3" d="M104.9,60l0.5,0.3c-0.2,0.3-0.4,0.6-0.6,0.8s-0.5,0.4-0.8,0.5s-0.6,0.2-0.9,0.2c-0.8,0-1.4-0.3-1.8-0.8
		s-0.7-1.1-0.7-1.7c0-0.6,0.2-1.1,0.6-1.6c0.5-0.6,1.1-0.9,1.9-0.9s1.5,0.3,2,0.9c0.3,0.4,0.5,1,0.5,1.6h-4.3c0,0.6,0.2,1,0.5,1.4
		s0.8,0.5,1.3,0.5c0.2,0,0.5,0,0.7-0.1s0.4-0.2,0.6-0.3C104.6,60.5,104.7,60.3,104.9,60z M104.9,58.7c-0.1-0.3-0.2-0.6-0.4-0.8
		c-0.2-0.2-0.4-0.4-0.6-0.5c-0.3-0.1-0.5-0.2-0.8-0.2c-0.5,0-0.9,0.2-1.2,0.5c-0.2,0.2-0.4,0.5-0.6,1H104.9z"/>
	<path class="st3" d="M109.7,56.8h0.6v0.7c0.2-0.3,0.4-0.5,0.6-0.6s0.4-0.2,0.7-0.2c0.2,0,0.4,0.1,0.5,0.2l-0.3,0.5
		c-0.1-0.1-0.2-0.1-0.3-0.1c-0.2,0-0.4,0.1-0.6,0.3s-0.3,0.4-0.4,0.8c-0.1,0.3-0.1,0.8-0.1,1.7v1.6h-0.6L109.7,56.8L109.7,56.8z"/>
	<path class="st3" d="M115.8,56.8h0.6v0.9c0.2-0.3,0.5-0.6,0.8-0.7c0.3-0.2,0.6-0.2,1-0.2s0.7,0.1,1,0.3s0.5,0.4,0.6,0.7
		s0.2,0.8,0.2,1.4v2.5h-0.6v-2.3c0-0.5,0-0.9-0.1-1.1c-0.1-0.3-0.2-0.6-0.4-0.7c-0.2-0.2-0.5-0.2-0.8-0.2c-0.4,0-0.7,0.1-1,0.4
		s-0.5,0.6-0.6,0.9c-0.1,0.2-0.1,0.7-0.1,1.3v1.8h-0.6V56.8z"/>
	<path class="st3" d="M129.2,56.8v4.8h-0.6v-0.8c-0.3,0.3-0.5,0.5-0.9,0.7c-0.3,0.2-0.7,0.2-1.1,0.2c-0.7,0-1.3-0.2-1.7-0.7
		c-0.5-0.5-0.7-1.1-0.7-1.8s0.2-1.3,0.7-1.8s1.1-0.7,1.7-0.7c0.4,0,0.7,0.1,1.1,0.3c0.3,0.2,0.6,0.4,0.8,0.8v-0.9L129.2,56.8
		L129.2,56.8z M126.7,57.3c-0.3,0-0.7,0.1-0.9,0.3c-0.3,0.2-0.5,0.4-0.7,0.7s-0.3,0.6-0.3,1c0,0.3,0.1,0.7,0.3,1
		c0.2,0.3,0.4,0.5,0.7,0.7c0.3,0.2,0.6,0.3,0.9,0.3s0.7-0.1,1-0.3s0.5-0.4,0.7-0.7s0.2-0.6,0.2-1c0-0.6-0.2-1-0.5-1.4
		C127.7,57.5,127.2,57.3,126.7,57.3z"/>
	<path class="st3" d="M134.2,55h0.6v1.8h1v0.5h-1v4.3h-0.6v-4.3h-0.8v-0.5h0.8V55z"/>
	<path class="st3" d="M140.1,54.8c0.1,0,0.3,0,0.4,0.1c0.1,0.1,0.1,0.2,0.1,0.4c0,0.1,0,0.3-0.1,0.4c-0.1,0.1-0.2,0.2-0.4,0.2
		c-0.1,0-0.3,0-0.4-0.2c-0.1-0.1-0.1-0.2-0.1-0.4c0-0.1,0-0.3,0.1-0.4S140,54.8,140.1,54.8z M139.8,56.8h0.6v4.8h-0.6V56.8z"/>
	<path class="st3" d="M147.1,56.7c0.7,0,1.3,0.3,1.8,0.8c0.4,0.5,0.7,1.1,0.7,1.7c0,0.7-0.2,1.3-0.7,1.8s-1.1,0.7-1.8,0.7
		s-1.3-0.3-1.8-0.7c-0.5-0.5-0.7-1.1-0.7-1.8s0.2-1.2,0.7-1.7C145.8,56.9,146.4,56.7,147.1,56.7z M147.1,57.3c-0.5,0-1,0.2-1.3,0.6
		c-0.4,0.4-0.6,0.8-0.6,1.4c0,0.3,0.1,0.7,0.3,1s0.4,0.5,0.7,0.7s0.6,0.2,0.9,0.2c0.3,0,0.7-0.1,0.9-0.2c0.3-0.2,0.5-0.4,0.7-0.7
		s0.3-0.6,0.3-1c0-0.5-0.2-1-0.6-1.4C148.1,57.5,147.6,57.3,147.1,57.3z"/>
	<path class="st3" d="M153.9,56.8h0.6v0.9c0.2-0.3,0.5-0.6,0.8-0.7c0.3-0.2,0.6-0.2,1-0.2s0.7,0.1,1,0.3s0.5,0.4,0.6,0.7
		s0.2,0.8,0.2,1.4v2.5h-0.6v-2.3c0-0.5,0-0.9-0.1-1.1c-0.1-0.3-0.2-0.6-0.4-0.7c-0.2-0.2-0.5-0.2-0.8-0.2c-0.4,0-0.7,0.1-1,0.4
		c-0.3,0.2-0.5,0.6-0.6,0.9c-0.1,0.2-0.1,0.7-0.1,1.3v1.8h-0.6L153.9,56.8L153.9,56.8z"/>
	<path class="st3" d="M167.3,56.8v4.8h-0.6v-0.8c-0.3,0.3-0.5,0.5-0.9,0.7c-0.3,0.2-0.7,0.2-1.1,0.2c-0.7,0-1.3-0.2-1.7-0.7
		c-0.5-0.5-0.7-1.1-0.7-1.8s0.2-1.3,0.7-1.8s1.1-0.7,1.7-0.7c0.4,0,0.7,0.1,1.1,0.3c0.3,0.2,0.6,0.4,0.8,0.8v-0.9L167.3,56.8
		L167.3,56.8z M164.8,57.3c-0.3,0-0.7,0.1-0.9,0.3c-0.3,0.2-0.5,0.4-0.7,0.7s-0.3,0.6-0.3,1c0,0.3,0.1,0.7,0.3,1s0.4,0.5,0.7,0.7
		s0.6,0.3,0.9,0.3c0.3,0,0.7-0.1,1-0.3s0.5-0.4,0.7-0.7s0.2-0.6,0.2-1c0-0.6-0.2-1-0.5-1.4C165.8,57.5,165.4,57.3,164.8,57.3z"/>
	<path class="st3" d="M171.7,55h0.6v6.6h-0.6V55z"/>
	<path class="st3" d="M182.5,55.1h0.6V61h2.5v0.6h-3.1V55.1z"/>
	<path class="st3" d="M194.5,56.8v4.8h-0.6v-0.8c-0.3,0.3-0.5,0.5-0.9,0.7c-0.3,0.2-0.7,0.2-1.1,0.2c-0.7,0-1.3-0.2-1.7-0.7
		c-0.5-0.5-0.7-1.1-0.7-1.8s0.2-1.3,0.7-1.8s1.1-0.7,1.7-0.7c0.4,0,0.7,0.1,1.1,0.3c0.3,0.2,0.6,0.4,0.8,0.8v-0.9L194.5,56.8
		L194.5,56.8z M192,57.3c-0.3,0-0.7,0.1-0.9,0.3s-0.5,0.4-0.7,0.7s-0.3,0.6-0.3,1c0,0.3,0.1,0.7,0.3,1s0.4,0.5,0.7,0.7
		s0.6,0.3,0.9,0.3c0.3,0,0.7-0.1,1-0.3s0.5-0.4,0.7-0.7s0.2-0.6,0.2-1c0-0.6-0.2-1-0.5-1.4C193,57.5,192.6,57.3,192,57.3z"/>
	<path class="st3" d="M198.4,56.8h0.6l1.5,3.5l1.5-3.5h0.1l1.5,3.5l1.5-3.5h0.6l-2.1,4.8h-0.1l-1.5-3.4l-1.5,3.4h-0.1L198.4,56.8z"
		/>
	<path class="st3" d="M215.3,55.1h0.6v6.5h-0.6V55.1z"/>
	<path class="st3" d="M220.5,56.8h0.6v0.9c0.2-0.3,0.5-0.6,0.8-0.7c0.3-0.2,0.6-0.2,1-0.2s0.7,0.1,1,0.3s0.5,0.4,0.6,0.7
		s0.2,0.8,0.2,1.4v2.5H224v-2.3c0-0.5,0-0.9-0.1-1.1c-0.1-0.3-0.2-0.6-0.4-0.7c-0.2-0.2-0.5-0.2-0.8-0.2c-0.4,0-0.7,0.1-1,0.4
		c-0.3,0.2-0.5,0.6-0.6,0.9c-0.1,0.2-0.1,0.7-0.1,1.3v1.8h-0.6v-5C220.4,56.8,220.5,56.8,220.5,56.8z"/>
	<path class="st3" d="M231.5,57.3l-0.4,0.4c-0.3-0.3-0.7-0.5-1-0.5c-0.2,0-0.4,0.1-0.5,0.2c-0.1,0.1-0.2,0.3-0.2,0.5
		s0.1,0.3,0.2,0.4c0.1,0.1,0.4,0.3,0.7,0.5c0.5,0.2,0.8,0.5,0.9,0.7c0.2,0.2,0.2,0.5,0.2,0.8c0,0.4-0.1,0.7-0.4,1
		c-0.3,0.3-0.6,0.4-1,0.4c-0.3,0-0.5-0.1-0.8-0.2c-0.3-0.1-0.5-0.3-0.6-0.5l0.4-0.4c0.3,0.4,0.6,0.5,1,0.5c0.2,0,0.5-0.1,0.6-0.2
		c0.2-0.2,0.3-0.3,0.3-0.6c0-0.2-0.1-0.3-0.2-0.5c-0.1-0.1-0.4-0.3-0.8-0.5c-0.4-0.2-0.7-0.4-0.9-0.7c-0.2-0.2-0.2-0.5-0.2-0.7
		c0-0.4,0.1-0.7,0.4-0.9s0.6-0.4,0.9-0.4C230.6,56.7,231.1,56.9,231.5,57.3z"/>
	<path class="st3" d="M236.3,55h0.6v1.8h1v0.5h-1v4.3h-0.6v-4.3h-0.8v-0.5h0.8V55z"/>
	<path class="st3" d="M242.2,54.8c0.1,0,0.3,0,0.4,0.1c0.1,0.1,0.1,0.2,0.1,0.4c0,0.1,0,0.3-0.1,0.4c-0.1,0.1-0.2,0.2-0.4,0.2
		c-0.1,0-0.3,0-0.4-0.2c-0.1-0.1-0.1-0.2-0.1-0.4c0-0.1,0-0.3,0.1-0.4C241.9,54.9,242,54.8,242.2,54.8z M241.9,56.8h0.6v4.8h-0.6
		V56.8z"/>
	<path class="st3" d="M247.5,55h0.6v1.8h1v0.5h-1v4.3h-0.6v-4.3h-0.8v-0.5h0.8V55z"/>
	<path class="st3" d="M253,56.8h0.6V59c0,0.5,0,0.9,0.1,1.1c0.1,0.3,0.3,0.5,0.5,0.7s0.5,0.3,0.9,0.3c0.3,0,0.6-0.1,0.9-0.2
		c0.2-0.2,0.4-0.4,0.5-0.7c0.1-0.2,0.1-0.6,0.1-1.2v-2.2h0.6v2.3c0,0.7-0.1,1.2-0.2,1.5c-0.2,0.3-0.4,0.6-0.7,0.8
		c-0.3,0.2-0.7,0.3-1.2,0.3s-0.9-0.1-1.2-0.3s-0.5-0.5-0.7-0.8s-0.2-0.8-0.2-1.5V56.8z"/>
	<path class="st3" d="M262.3,55h0.6v1.8h1v0.5h-1v4.3h-0.6v-4.3h-0.8v-0.5h0.8V55z"/>
	<path class="st3" d="M272,60l0.5,0.3c-0.2,0.3-0.4,0.6-0.6,0.8s-0.5,0.4-0.8,0.5s-0.6,0.2-0.9,0.2c-0.8,0-1.4-0.3-1.8-0.8
		s-0.7-1.1-0.7-1.7c0-0.6,0.2-1.1,0.6-1.6c0.5-0.6,1.1-0.9,1.9-0.9s1.5,0.3,2,0.9c0.3,0.4,0.5,1,0.5,1.6h-4.3c0,0.6,0.2,1,0.5,1.4
		s0.8,0.5,1.3,0.5c0.2,0,0.5,0,0.7-0.1s0.4-0.2,0.6-0.3C271.6,60.5,271.8,60.3,272,60z M272,58.7c-0.1-0.3-0.2-0.6-0.4-0.8
		s-0.4-0.4-0.6-0.5c-0.3-0.1-0.5-0.2-0.8-0.2c-0.5,0-0.9,0.2-1.2,0.5c-0.2,0.2-0.4,0.5-0.6,1H272z"/>
</g>
<g>
	<path class="st0" d="M81.2,41c0-2.3,0-2.6,0-3c0-0.6-0.2-0.8-0.6-0.9c-0.2,0-0.5,0-0.6-0.1c-0.2,0-0.3-0.1-0.3-0.2
		c0-0.1,0.1-0.1,0.3-0.1c0.6,0,2,0,2.2,0c0.3,0,1.7,0,2.4,0c1.4,0,2.4,0.1,3,0.5c0.7,0.4,1.3,1.1,1.3,2.2c0,1.2-0.7,2.2-2,3
		c0.9,1.3,2,2.9,2.9,3.9c0.8,0.9,1.1,1.1,1.5,1.2c0.2,0,0.3,0,0.4,0c0.2,0,0.3,0.1,0.3,0.1c0,0.1-0.1,0.1-0.3,0.1h-1.3
		c-1.5,0-2.2-0.1-2.7-0.5c-0.5-0.3-0.9-0.9-1.5-1.8c-0.7-1.1-1-1.7-1.3-2.1c0,0-0.1-0.1-0.2-0.1h-1c-0.1,0-0.1,0-0.1,0.1v0.7
		c0,1.2,0,1.9,0.1,2.5c0,0.4,0.1,0.7,0.6,0.8c0.2,0.1,0.4,0.1,0.7,0.1c0.2,0,0.3,0.1,0.3,0.2c0,0.1-0.1,0.1-0.3,0.1
		c-1,0-2.6,0-2.7,0c-0.2,0-1.6,0-2.1,0c-0.2,0-0.3,0-0.3-0.1c0-0.1,0.1-0.1,0.3-0.1c0.1,0,0.3,0,0.5-0.1c0.3-0.1,0.4-0.3,0.5-0.8
		c0.1-0.6,0.1-1.6,0.1-3.1V41z M83.7,42c0,0.1,0,0.2,0.1,0.2c0.3,0.1,0.7,0.2,1.1,0.2c0.4,0,0.7-0.1,0.9-0.2
		c0.3-0.2,0.6-0.9,0.6-1.9c0-2.1-1.3-2.6-2.1-2.6c-0.2,0-0.5,0-0.6,0.1c-0.1,0-0.1,0-0.1,0.2V42z"/>
	<path class="st0" d="M91.7,42.4c0-2.9,2-5.8,6.3-5.8c3.7,0,6.1,2.5,6.1,5.5c0,3.4-2.3,6-6.2,6C93.6,48.1,91.7,45,91.7,42.4z
		 M101.1,42.7c0-2.4-1-5.2-3.6-5.2c-1.4,0-2.9,0.7-2.9,4.2c0,2.8,1.2,5.4,3.7,5.4C99.2,47.2,101.1,46.8,101.1,42.7z"/>
	<path class="st0" d="M108.7,44.1c0-0.8-0.2-1.1-0.4-1.6c-0.5-1-2-3.4-2.5-4.2c-0.6-0.9-0.7-1-1.2-1.2c-0.1,0-0.3-0.1-0.4-0.1
		c-0.1,0-0.2-0.1-0.2-0.2c0-0.1,0.1-0.1,0.3-0.1c0.6,0,1.7,0,2.3,0c0.3,0,1.2,0,2.1,0c0.2,0,0.3,0,0.3,0.1c0,0.1-0.1,0.1-0.3,0.2
		c-0.4,0-0.5,0.2-0.5,0.3c0,0.1,0,0.2,0.1,0.4c0.2,0.4,2.1,3.7,2.3,4.1c0.9-1.7,1.7-3.2,2-3.7c0.1-0.3,0.2-0.6,0.2-0.7
		c0-0.2-0.1-0.3-0.5-0.4c-0.1,0-0.3-0.1-0.3-0.2c0-0.1,0.1-0.1,0.3-0.1c0.6,0,1.1,0,1.7,0c0.2,0,1.4,0,1.7,0c0.2,0,0.3,0,0.3,0.1
		c0,0.1-0.1,0.2-0.3,0.2c-0.2,0-0.4,0.1-0.6,0.1c-0.4,0.2-0.6,0.4-0.8,0.7c-0.5,0.6-2.6,4.2-2.8,4.8c-0.2,0.6-0.2,1.2-0.2,1.4v1
		c0,0.2,0,0.8,0,1.5c0,0.4,0.1,0.7,0.6,0.8c0.3,0.1,0.6,0.1,0.8,0.1c0.2,0,0.2,0.1,0.2,0.2c0,0.1-0.1,0.1-0.3,0.1
		c-1.1,0-2.3,0-2.8,0c-0.4,0-1.6,0-2.3,0c-0.2,0-0.3-0.1-0.3-0.2c0-0.1,0.1-0.1,0.3-0.1c0.2,0,0.4,0,0.5-0.1
		c0.4-0.1,0.5-0.4,0.5-0.8c0-0.6,0.1-1.3,0.1-1.5V44.1z"/>
	<path class="st0" d="M117.3,44.9c-0.1,0-0.1,0-0.1,0.1l-0.5,1.2c-0.1,0.4-0.2,0.8-0.2,0.9c0,0.3,0.1,0.4,0.4,0.4
		c0.2,0,0.4,0,0.5,0.1c0.2,0,0.3,0.1,0.3,0.1c0,0.1-0.1,0.1-0.3,0.1c-0.7,0-1.2,0-1.9,0c-0.2,0-1.1,0-1.9,0c-0.2,0-0.3-0.1-0.3-0.1
		c0-0.1,0.1-0.1,0.3-0.1c0.2,0,0.3,0,0.5-0.1c0.5-0.1,0.8-0.6,1.1-1.3l3.9-8.9c0.3-0.6,0.4-0.9,0.6-0.9c0.1,0,0.3,0.2,0.5,0.7
		c0.4,0.8,2.9,6.5,3.9,8.7c0.5,1.1,0.8,1.5,1.3,1.6c0.2,0,0.3,0,0.5,0.1c0.2,0,0.3,0.1,0.3,0.1c0,0.1-0.1,0.1-0.4,0.1
		c-1.4,0-3.1,0-4.1,0c-0.2,0-0.3,0-0.3-0.1c0-0.1,0.1-0.1,0.2-0.2c0.2,0,0.2-0.1,0.2-0.3l-1-2.3c0-0.1-0.1-0.1-0.1-0.1H117.3z
		 M120.3,43.7C120.4,43.7,120.4,43.6,120.3,43.7l-1.2-3.2c0-0.1-0.1-0.1-0.1,0l-1.2,3.1c0,0,0,0.1,0.1,0.1H120.3z"/>
	<path class="st0" d="M130.1,43.7c0,1.5,0,2.5,0.2,2.9c0.2,0.3,0.5,0.4,1.7,0.4c0.8,0,1.3,0,1.7-0.2c0.4-0.2,0.6-0.5,0.8-1.2
		c0-0.2,0.1-0.3,0.2-0.3c0.1,0,0.1,0.1,0.1,0.3c0,0.3-0.2,1.7-0.3,2.2c-0.1,0.4-0.2,0.4-0.8,0.4c-2,0-3.4-0.1-5-0.1
		c-0.7,0-1.5,0-2.3,0c-0.2,0-0.3,0-0.3-0.2c0-0.1,0.1-0.1,0.3-0.1c0.2,0,0.3,0,0.5-0.1c0.5-0.1,0.5-0.4,0.6-1.5c0-0.6,0-1.5,0-2.4
		V41c0-2.4,0-2.7,0-3.1c0-0.4-0.1-0.7-0.5-0.8c-0.1,0-0.4-0.1-0.6-0.1c-0.2,0-0.3,0-0.3-0.1c0-0.1,0.1-0.1,0.4-0.1
		c0.8,0,1.6,0,2.2,0c0.1,0,2,0,2.5,0c0.3,0,0.4,0,0.4,0.1c0,0.1-0.1,0.2-0.4,0.2c-0.1,0-0.3,0-0.5,0.1c-0.4,0.1-0.5,0.4-0.5,0.9
		c0,0.5,0,0.8,0,3.2V43.7z"/>
	<path class="st0" d="M144,43.7c0,1.5,0,2.5,0.2,2.9c0.2,0.3,0.5,0.4,1.7,0.4c0.8,0,1.3,0,1.7-0.2c0.4-0.2,0.6-0.5,0.8-1.2
		c0-0.2,0.1-0.3,0.2-0.3c0.1,0,0.1,0.1,0.1,0.3c0,0.3-0.2,1.7-0.3,2.2c-0.1,0.4-0.2,0.4-0.8,0.4c-2,0-3.4-0.1-5-0.1
		c-0.7,0-1.5,0-2.3,0c-0.2,0-0.3,0-0.3-0.2c0-0.1,0.1-0.1,0.3-0.1c0.2,0,0.3,0,0.5-0.1c0.5-0.1,0.5-0.4,0.6-1.5c0-0.6,0-1.5,0-2.4
		V41c0-2.4,0-2.7,0-3.1c0-0.4-0.1-0.7-0.5-0.8c-0.1,0-0.4-0.1-0.6-0.1c-0.2,0-0.3,0-0.3-0.1c0-0.1,0.1-0.1,0.4-0.1
		c0.8,0,1.6,0,2.2,0c0.1,0,2,0,2.5,0c0.3,0,0.4,0,0.4,0.1c0,0.1-0.1,0.2-0.4,0.2c-0.1,0-0.3,0-0.5,0.1c-0.4,0.1-0.5,0.4-0.5,0.9
		c0,0.5,0,0.8,0,3.2V43.7z"/>
	<path class="st0" d="M153,43.3c0,2,0.3,2.9,1.1,3.5c0.6,0.4,1.1,0.4,1.5,0.4c0.5,0,1.1-0.1,1.6-0.5c0.8-0.7,0.8-2.2,0.8-3.8V41
		c0-2.2,0-2.5,0-3c0-0.6-0.1-0.8-0.6-0.9c-0.2,0-0.3,0-0.5-0.1c-0.2,0-0.3-0.1-0.3-0.1c0-0.1,0.1-0.1,0.3-0.1c0.8,0,1.7,0,2,0
		c0.3,0,1.2,0,1.9,0c0.2,0,0.3,0,0.3,0.1c0,0.1-0.1,0.1-0.3,0.1c-0.2,0-0.3,0-0.5,0.1c-0.4,0.1-0.5,0.3-0.6,0.9c0,0.5,0,0.9,0,3v1.4
		c0,1.7-0.1,3.5-1.5,4.6c-0.9,0.8-2.1,1-3.1,1c-1.3,0-2.6-0.2-3.5-1c-0.8-0.6-1.4-1.7-1.4-3.8V41c0-2.3,0-2.7,0-3.2
		c0-0.4-0.1-0.6-0.5-0.7c-0.2-0.1-0.5-0.1-0.6-0.1c-0.2,0-0.3-0.1-0.3-0.2c0-0.1,0.1-0.1,0.4-0.1c0.6,0,2.1,0,2.2,0
		c0.1,0,1.9,0,2.4,0c0.3,0,0.3,0,0.3,0.1c0,0.1-0.1,0.1-0.3,0.2c-0.1,0-0.3,0-0.5,0.1c-0.4,0.1-0.5,0.4-0.5,0.9s0,1.2,0,3V43.3z"/>
	<path class="st0" d="M165.8,42.5l-2.5-4.1c-0.4-0.7-0.7-1.1-1.4-1.3c-0.2,0-0.3,0-0.4-0.1c-0.2,0-0.2-0.1-0.2-0.2
		c0-0.1,0.1-0.1,0.3-0.1c0.3,0,0.8,0,2.3,0c0.3,0,1.5,0,2.3,0c0.2,0,0.3,0,0.3,0.1c0,0.1-0.1,0.1-0.3,0.2c-0.1,0-0.3,0-0.4,0.1
		c-0.1,0-0.2,0.1-0.2,0.2c0,0.2,0.2,0.5,0.3,0.7c0.6,1.1,1.2,2,1.5,2.6c0.4-0.6,1.4-2.2,1.7-2.7c0.2-0.3,0.3-0.5,0.3-0.6
		c0-0.1-0.1-0.2-0.3-0.3c-0.1,0-0.3,0-0.5-0.1c-0.1,0-0.2-0.1-0.2-0.1c0-0.1,0.1-0.1,0.3-0.1c0.6,0,1.4,0,1.8,0c0.4,0,1.1,0,1.7,0
		c0.2,0,0.3,0,0.3,0.1c0,0.1-0.1,0.2-0.3,0.2c-0.2,0-0.3,0-0.4,0.1c-0.4,0.1-0.7,0.3-1.3,1.2l-2.4,3.3c0.7,1.1,2.8,4.6,3.3,5.3
		c0.2,0.3,0.5,0.5,0.9,0.6c0.2,0,0.3,0.1,0.5,0.1c0.2,0,0.2,0.1,0.2,0.1c0,0.1-0.1,0.1-0.3,0.1c-2.1,0-3.5,0-4.3-0.1
		c-0.2,0-0.3-0.1-0.3-0.1c0-0.1,0.1-0.1,0.2-0.1c0.2-0.1,0.2-0.2,0.1-0.4c-0.5-0.9-1.6-2.8-2-3.6l-2,3.1c-0.1,0.2-0.2,0.4-0.2,0.6
		c0,0.1,0.1,0.3,0.4,0.3c0.1,0,0.3,0,0.4,0c0.2,0,0.3,0.1,0.3,0.2c0,0.1-0.1,0.1-0.3,0.1c-0.3,0-1.6-0.1-2.1-0.1c-0.5,0-1.5,0-1.7,0
		c-0.2,0-0.3,0-0.3-0.1c0-0.1,0.1-0.1,0.3-0.1c0.1,0,0.3,0,0.5-0.1c0.4-0.1,0.7-0.3,1.3-1.1L165.8,42.5z"/>
	<path class="st0" d="M176.6,43.3c0,2,0.3,2.9,1.1,3.5c0.6,0.4,1.1,0.4,1.5,0.4c0.5,0,1.1-0.1,1.6-0.5c0.8-0.7,0.8-2.2,0.8-3.8V41
		c0-2.2,0-2.5,0-3c0-0.6-0.1-0.8-0.6-0.9c-0.2,0-0.3,0-0.5-0.1c-0.2,0-0.3-0.1-0.3-0.1c0-0.1,0.1-0.1,0.3-0.1c0.8,0,1.7,0,2,0
		c0.3,0,1.2,0,1.9,0c0.2,0,0.3,0,0.3,0.1c0,0.1-0.1,0.1-0.3,0.1c-0.2,0-0.3,0-0.5,0.1c-0.4,0.1-0.5,0.3-0.6,0.9c0,0.5,0,0.9,0,3v1.4
		c0,1.7-0.1,3.5-1.5,4.6c-0.9,0.8-2.1,1-3.1,1c-1.3,0-2.6-0.2-3.5-1c-0.8-0.6-1.4-1.7-1.4-3.8V41c0-2.3,0-2.7,0-3.2
		c0-0.4-0.1-0.6-0.5-0.7c-0.2-0.1-0.5-0.1-0.6-0.1c-0.2,0-0.3-0.1-0.3-0.2c0-0.1,0.1-0.1,0.4-0.1c0.6,0,2.1,0,2.2,0
		c0.1,0,1.9,0,2.4,0c0.3,0,0.3,0,0.3,0.1c0,0.1-0.1,0.1-0.3,0.2c-0.1,0-0.3,0-0.5,0.1c-0.4,0.1-0.5,0.4-0.5,0.9s0,1.2,0,3V43.3z"/>
	<path class="st0" d="M187.1,41c0-2.3,0-2.6,0-3c0-0.6-0.2-0.8-0.6-0.9c-0.2,0-0.5,0-0.6-0.1c-0.2,0-0.3-0.1-0.3-0.2
		c0-0.1,0.1-0.1,0.3-0.1c0.6,0,2,0,2.2,0c0.3,0,1.7,0,2.4,0c1.4,0,2.4,0.1,3,0.5c0.7,0.4,1.3,1.1,1.3,2.2c0,1.2-0.7,2.2-2,3
		c0.9,1.3,2,2.9,2.9,3.9c0.8,0.9,1.1,1.1,1.5,1.2c0.2,0,0.3,0,0.4,0c0.2,0,0.3,0.1,0.3,0.1c0,0.1-0.1,0.1-0.3,0.1h-1.3
		c-1.5,0-2.2-0.1-2.7-0.5c-0.5-0.3-0.9-0.9-1.5-1.8c-0.7-1.1-1-1.7-1.3-2.1c0,0-0.1-0.1-0.2-0.1h-1c-0.1,0-0.1,0-0.1,0.1v0.7
		c0,1.2,0,1.9,0.1,2.5c0,0.4,0.1,0.7,0.6,0.8c0.2,0.1,0.4,0.1,0.7,0.1c0.2,0,0.3,0.1,0.3,0.2c0,0.1-0.1,0.1-0.3,0.1
		c-1,0-2.6,0-2.7,0c-0.2,0-1.6,0-2.1,0c-0.2,0-0.3,0-0.3-0.1c0-0.1,0.1-0.1,0.3-0.1c0.1,0,0.3,0,0.5-0.1c0.3-0.1,0.4-0.3,0.5-0.8
		c0.1-0.6,0.1-1.6,0.1-3.1V41z M189.6,42c0,0.1,0,0.2,0.1,0.2c0.3,0.1,0.7,0.2,1.1,0.2c0.4,0,0.7-0.1,0.9-0.2
		c0.3-0.2,0.6-0.9,0.6-1.9c0-2.1-1.3-2.6-2.1-2.6c-0.2,0-0.5,0-0.6,0.1c-0.1,0-0.1,0-0.1,0.2V42z"/>
	<path class="st0" d="M200.5,44.1c0-0.8-0.2-1.1-0.4-1.6c-0.5-1-2-3.4-2.5-4.2c-0.6-0.9-0.7-1-1.2-1.2c-0.1,0-0.3-0.1-0.4-0.1
		c-0.1,0-0.2-0.1-0.2-0.2c0-0.1,0.1-0.1,0.3-0.1c0.6,0,1.7,0,2.3,0c0.2,0,1.2,0,2.1,0c0.2,0,0.3,0,0.3,0.1c0,0.1-0.1,0.1-0.3,0.2
		c-0.4,0-0.5,0.2-0.5,0.3c0,0.1,0,0.2,0.1,0.4c0.2,0.4,2.1,3.7,2.3,4.1c0.9-1.7,1.7-3.2,2-3.7c0.1-0.3,0.2-0.6,0.2-0.7
		c0-0.2-0.1-0.3-0.5-0.4c-0.1,0-0.3-0.1-0.3-0.2c0-0.1,0.1-0.1,0.3-0.1c0.6,0,1.1,0,1.7,0c0.2,0,1.4,0,1.7,0c0.2,0,0.3,0,0.3,0.1
		c0,0.1-0.1,0.2-0.3,0.2c-0.2,0-0.4,0.1-0.6,0.1c-0.4,0.2-0.6,0.4-0.8,0.7c-0.5,0.6-2.6,4.2-2.8,4.8c-0.2,0.6-0.2,1.2-0.2,1.4v1
		c0,0.2,0,0.8,0,1.5c0,0.4,0.1,0.7,0.6,0.8c0.3,0.1,0.6,0.1,0.8,0.1c0.2,0,0.2,0.1,0.2,0.2c0,0.1-0.1,0.1-0.3,0.1
		c-1.1,0-2.3,0-2.8,0c-0.4,0-1.6,0-2.3,0c-0.2,0-0.3-0.1-0.3-0.2c0-0.1,0.1-0.1,0.3-0.1c0.2,0,0.4,0,0.5-0.1
		c0.4-0.1,0.5-0.4,0.5-0.8c0-0.6,0.1-1.3,0.1-1.5V44.1z"/>
	<path class="st0" d="M222.8,46.5c0,0.9,0,1-0.3,1.1c-0.8,0.3-2.3,0.6-3.6,0.6c-4.1,0-7-1.9-7-5.8c0-2.5,1.3-4,2.6-4.8
		c1.5-0.9,3.1-1,4.2-1c0.9,0,1.7,0.1,2.4,0.2c0.5,0.1,1,0.2,1.4,0.2c0.1,0,0.2,0.1,0.1,0.2c0,0.1-0.2,0.7-0.2,2.7
		c0,0.2-0.1,0.3-0.2,0.3s-0.2-0.1-0.2-0.2c0-0.2,0-0.4-0.2-0.7c-0.3-1-1.6-1.7-3.6-1.7c-1.1,0-2,0.3-2.6,1.1
		c-0.6,0.6-0.9,1.7-0.9,3.2c0,2.6,1.3,5.4,4.3,5.4c0.2,0,0.6,0,0.8-0.2c0.1-0.1,0.2-0.2,0.2-0.4v-0.9c0-0.6,0-1.2,0-1.7
		c0-0.8-0.2-1.1-0.7-1.2c-0.2,0-0.4,0-0.6-0.1c-0.1,0-0.2-0.1-0.2-0.1s0.1-0.1,0.3-0.1c1,0,2.1,0,2.5,0c0.5,0,1.5,0,2.3,0
		c0.2,0,0.3,0,0.3,0.1c0,0.1-0.1,0.1-0.2,0.1c-0.1,0-0.3,0-0.4,0c-0.4,0.1-0.5,0.2-0.6,0.7c0,0.5,0,1.2,0,2V46.5z"/>
	<path class="st0" d="M226.4,41c0-2.3,0-2.6,0-3c0-0.6-0.2-0.8-0.6-0.9c-0.2,0-0.5,0-0.6-0.1c-0.2,0-0.3-0.1-0.3-0.2
		c0-0.1,0.1-0.1,0.3-0.1c0.6,0,2,0,2.2,0c0.3,0,1.7,0,2.4,0c1.4,0,2.4,0.1,3,0.5c0.7,0.4,1.3,1.1,1.3,2.2c0,1.2-0.7,2.2-2,3
		c0.9,1.3,2,2.9,2.9,3.9c0.8,0.9,1.1,1.1,1.5,1.2c0.2,0,0.3,0,0.4,0c0.2,0,0.3,0.1,0.3,0.1c0,0.1-0.1,0.1-0.3,0.1h-1.3
		c-1.5,0-2.2-0.1-2.7-0.5c-0.5-0.3-0.9-0.9-1.5-1.8c-0.7-1.1-1-1.7-1.3-2.1c0,0-0.1-0.1-0.2-0.1h-1c-0.1,0-0.1,0-0.1,0.1v0.7
		c0,1.2,0,1.9,0.1,2.5c0,0.4,0.1,0.7,0.6,0.8c0.2,0.1,0.4,0.1,0.7,0.1c0.2,0,0.3,0.1,0.3,0.2c0,0.1-0.1,0.1-0.3,0.1
		c-1,0-2.6,0-2.7,0c-0.2,0-1.6,0-2.1,0c-0.2,0-0.3,0-0.3-0.1c0-0.1,0.1-0.1,0.3-0.1c0.1,0,0.3,0,0.5-0.1c0.3-0.1,0.4-0.3,0.5-0.8
		c0.1-0.6,0.1-1.6,0.1-3.1V41z M228.9,42c0,0.1,0,0.2,0.1,0.2c0.3,0.1,0.7,0.2,1.1,0.2c0.4,0,0.7-0.1,0.9-0.2
		c0.3-0.2,0.6-0.9,0.6-1.9c0-2.1-1.3-2.6-2.1-2.6c-0.2,0-0.5,0-0.6,0.1c-0.1,0-0.1,0-0.1,0.2V42z"/>
	<path class="st0" d="M236.9,42.4c0-2.9,2-5.8,6.3-5.8c3.7,0,6.1,2.5,6.1,5.5c0,3.4-2.3,6-6.2,6C238.7,48.1,236.9,45,236.9,42.4z
		 M246.3,42.7c0-2.4-1-5.2-3.6-5.2c-1.4,0-2.9,0.7-2.9,4.2c0,2.8,1.2,5.4,3.7,5.4C244.4,47.2,246.3,46.8,246.3,42.7z"/>
	<path class="st0" d="M254.5,43.3c0,2,0.3,2.9,1.1,3.5c0.6,0.4,1.1,0.4,1.5,0.4c0.5,0,1.1-0.1,1.6-0.5c0.8-0.7,0.8-2.2,0.8-3.8V41
		c0-2.2,0-2.5,0-3c0-0.6-0.1-0.8-0.6-0.9c-0.2,0-0.3,0-0.5-0.1c-0.2,0-0.3-0.1-0.3-0.1c0-0.1,0.1-0.1,0.3-0.1c0.8,0,1.7,0,2,0
		c0.3,0,1.2,0,1.9,0c0.2,0,0.3,0,0.3,0.1c0,0.1-0.1,0.1-0.3,0.1c-0.2,0-0.3,0-0.5,0.1c-0.4,0.1-0.5,0.3-0.6,0.9c0,0.5,0,0.9,0,3v1.4
		c0,1.7-0.1,3.5-1.5,4.6c-0.9,0.8-2.1,1-3.1,1c-1.3,0-2.6-0.2-3.5-1c-0.8-0.6-1.4-1.7-1.4-3.8V41c0-2.3,0-2.7,0-3.2
		c0-0.4-0.1-0.6-0.5-0.7c-0.2-0.1-0.5-0.1-0.6-0.1c-0.2,0-0.3-0.1-0.3-0.2c0-0.1,0.1-0.1,0.4-0.1c0.6,0,2.1,0,2.2,0
		c0.1,0,1.9,0,2.4,0c0.3,0,0.3,0,0.3,0.1c0,0.1-0.1,0.1-0.3,0.2c-0.1,0-0.3,0-0.5,0.1c-0.4,0.1-0.5,0.4-0.5,0.9s0,1.2,0,3V43.3z"/>
	<path class="st0" d="M265,41c0-1.6,0-2.7,0-3.2c0-0.4-0.2-0.7-0.5-0.7c-0.2,0-0.4,0-0.6-0.1c-0.2,0-0.3-0.1-0.3-0.1
		c0-0.1,0-0.1,0.3-0.1c0.6,0,2.1,0,2.4,0c0.7,0,1.5,0,2.2,0c2,0,3,0.5,3.6,1c0.3,0.3,0.8,1,0.8,2c0,2.3-2.1,3.5-4.1,3.5
		c-0.1,0-0.4,0-0.5,0c-0.1,0-0.2-0.1-0.2-0.1c0-0.1,0.1-0.1,0.3-0.1c1.2,0,1.8-1,1.8-2.3c0-1-0.2-1.8-0.7-2.4
		c-0.4-0.4-0.9-0.6-1.4-0.6c-0.2,0-0.3,0-0.4,0c-0.1,0-0.2,0.1-0.2,0.4v5.6c0,1.1,0,2.5,0.1,3.1c0,0.4,0.1,0.7,0.6,0.8
		c0.2,0,0.5,0.1,0.6,0.1c0.2,0,0.3,0,0.3,0.2c0,0.1-0.1,0.1-0.3,0.1c-1,0-2.6,0-2.7,0c-0.1,0-1.7,0-2.2,0c-0.2,0-0.3,0-0.3-0.1
		c0-0.1,0.1-0.1,0.3-0.1c0.1,0,0.3,0,0.4-0.1c0.3-0.1,0.4-0.3,0.5-0.8c0.1-0.6,0.1-1.7,0.1-3.1V41z"/>
</g>
</svg>
